<svg width="437" height="139" viewBox="0 0 437 139" fill="none" xmlns="http://www.w3.org/2000/svg">
<path d="M93.312 102.816C91.44 104.4 88.992 105.696 85.968 106.704C83.088 107.568 79.704 108 75.816 108C70.632 108 66.3121 107.352 62.8561 106.056C59.5441 104.76 57.3841 102.528 56.3761 99.36C52.3441 86.688 49.032 76.464 46.44 68.688C43.848 60.768 41.8321 53.856 40.3921 47.952H39.312C38.88 56.448 38.5201 64.224 38.2321 71.28C38.0881 78.192 37.944 84.96 37.8 91.584C37.8 98.208 37.6561 104.904 37.3681 111.672C37.2241 118.44 36.936 125.928 36.504 134.136C34.632 134.856 32.184 135.432 29.16 135.864C26.136 136.44 23.112 136.728 20.088 136.728C13.752 136.728 8.78408 135.72 5.18408 133.704C1.72808 131.688 0 128.016 0 122.688L6.26404 12.528C7.41604 10.656 9.93601 8.64001 13.824 6.48001C17.712 4.32001 23.1841 3.24002 30.2401 3.24002C37.8721 3.24002 43.848 4.46402 48.168 6.91202C52.488 9.21602 55.6561 13.032 57.6721 18.36C58.9681 21.816 60.336 25.776 61.776 30.24C63.36 34.704 64.872 39.312 66.312 44.064C67.896 48.816 69.4081 53.568 70.8481 58.32C72.2881 62.928 73.5841 67.104 74.7361 70.848H75.816C79.272 58.752 82.7281 47.088 86.1841 35.856C89.6401 24.48 92.8081 14.976 95.6881 7.34402C97.8481 6.19202 100.584 5.25602 103.896 4.53602C107.352 3.67202 111.168 3.24002 115.344 3.24002C122.4 3.24002 128.16 4.32001 132.624 6.48001C137.088 8.49601 139.68 11.448 140.4 15.336C140.976 18.216 141.552 22.68 142.128 28.728C142.848 34.632 143.568 41.328 144.288 48.816C145.008 56.304 145.728 64.224 146.448 72.576C147.168 80.928 147.816 88.992 148.392 96.768C149.112 104.4 149.688 111.456 150.12 117.936C150.552 124.272 150.84 129.168 150.984 132.624C148.536 134.064 145.944 135.072 143.208 135.648C140.616 136.368 137.232 136.728 133.056 136.728C127.584 136.728 122.976 135.792 119.232 133.92C115.488 132.048 113.472 128.376 113.184 122.904C112.32 107.208 111.744 93.096 111.456 80.568C111.312 68.04 111.024 57.528 110.592 49.032H109.512C108.072 54.648 105.984 61.704 103.248 70.2C100.512 78.696 97.2 89.568 93.312 102.816Z" fill="#215D60"/>
<path d="M167.187 69.336C167.187 58.104 168.915 48.168 172.371 39.528C175.971 30.888 180.795 23.688 186.843 17.928C193.035 12.024 200.235 7.56 208.443 4.536C216.795 1.512 225.795 0 235.443 0C245.091 0 254.019 1.512 262.227 4.536C270.579 7.56 277.851 12.024 284.043 17.928C290.235 23.688 295.059 30.888 298.515 39.528C302.115 48.168 303.915 58.104 303.915 69.336C303.915 80.568 302.187 90.576 298.731 99.36C295.275 108 290.451 115.272 284.259 121.176C278.211 126.936 271.011 131.328 262.659 134.352C254.307 137.376 245.235 138.888 235.443 138.888C225.651 138.888 216.579 137.376 208.227 134.352C199.875 131.184 192.675 126.648 186.627 120.744C180.579 114.84 175.827 107.568 172.371 98.928C168.915 90.288 167.187 80.424 167.187 69.336ZM206.067 69.336C206.067 82.44 208.731 92.232 214.059 98.712C219.387 105.192 226.515 108.432 235.443 108.432C244.515 108.432 251.715 105.192 257.043 98.712C262.371 92.232 265.035 82.44 265.035 69.336C265.035 56.376 262.371 46.656 257.043 40.176C251.859 33.696 244.731 30.456 235.659 30.456C226.731 30.456 219.531 33.696 214.059 40.176C208.731 46.512 206.067 56.232 206.067 69.336Z" fill="#4A867D"/>
<path d="M363.126 92.664V134.136C361.542 134.568 359.022 135 355.566 135.432C352.254 135.864 348.942 136.08 345.63 136.08C342.318 136.08 339.366 135.792 336.774 135.216C334.326 134.784 332.238 133.92 330.51 132.624C328.926 131.328 327.702 129.528 326.838 127.224C325.974 124.92 325.542 121.896 325.542 118.152V16.416C325.542 13.392 326.334 11.088 327.918 9.504C329.646 7.776 331.95 6.408 334.83 5.4C339.726 3.672 345.414 2.448 351.894 1.728C358.374 0.864004 365.286 0.432007 372.63 0.432007C392.502 0.432007 407.478 4.608 417.558 12.96C427.638 21.312 432.678 32.616 432.678 46.872C432.678 55.8 430.374 63.432 425.766 69.768C421.158 76.104 415.686 81 409.35 84.456C414.534 91.512 419.646 98.136 424.686 104.328C429.726 110.52 433.686 116.136 436.566 121.176C435.126 126.216 432.462 130.104 428.574 132.84C424.83 135.432 420.582 136.728 415.83 136.728C412.662 136.728 409.926 136.368 407.622 135.648C405.318 134.928 403.302 133.92 401.574 132.624C399.846 131.328 398.262 129.744 396.822 127.872C395.382 126 394.014 123.984 392.718 121.824L374.574 92.664H363.126ZM376.734 63.936C382.206 63.936 386.526 62.568 389.694 59.832C392.862 56.952 394.446 52.776 394.446 47.304C394.446 41.832 392.646 37.728 389.046 34.992C385.59 32.112 380.046 30.672 372.414 30.672C370.254 30.672 368.526 30.744 367.23 30.888C365.934 31.032 364.494 31.248 362.91 31.536V63.936H376.734Z" fill="#72AF9A"/>
</svg>
