<svg width="150" height="150" viewBox="0 0 150 150" fill="none" xmlns="http://www.w3.org/2000/svg">
<path d="M48.1963 13.4824C50.9976 15.1705 52.8695 16.8004 54.75 19.5C55.2498 19.3008 55.7497 19.1017 56.2646 18.8965C69.936 13.6574 82.4307 13.9975 96 19.5C96.2813 19.1384 96.5627 18.7768 96.8525 18.4043C100.842 13.4803 100.842 13.4803 104.25 12.75C108.473 12.4148 111.127 12.5848 114.75 15C117.678 17.9674 119.362 20.3197 119.484 24.5156C119.456 28.4529 118.544 30.5793 116.25 33.75C115.755 33.9975 115.26 34.245 114.75 34.5C115.277 37.1976 116.412 39.373 117.656 41.8125C122.912 53.2444 122.559 65.1475 122.47 77.4844C122.465 79.216 122.462 80.9476 122.46 82.6793C122.452 87.1968 122.43 91.7143 122.404 96.2318C122.381 100.858 122.371 105.483 122.36 110.109C122.336 119.156 122.298 128.203 122.25 137.25C121.012 137.25 119.775 137.25 118.5 137.25C118.496 136.306 118.491 135.361 118.487 134.388C118.444 125.451 118.389 116.514 118.323 107.578C118.29 102.984 118.26 98.3905 118.24 93.7969C118.221 89.3569 118.19 84.9171 118.153 80.4773C118.14 78.7904 118.131 77.1035 118.127 75.4165C118.093 64.431 117.721 54.2737 113.484 43.9687C113.157 43.1586 112.829 42.3484 112.491 41.5137C112.247 40.9317 112.002 40.3496 111.75 39.75C111.731 40.5099 111.711 41.2698 111.691 42.0527C111.649 43.0664 111.606 44.0801 111.562 45.0937C111.552 45.5926 111.541 46.0915 111.53 46.6055C111.345 50.3847 110.342 52.5655 108 55.5C103.581 59.3933 100.77 59.4268 95.0625 59.4844C94.0024 59.517 94.0024 59.517 92.9209 59.5503C87.2656 59.6018 84.9185 58.4724 80.7656 54.6562C78.8996 51.4771 78.9454 48.6648 78.75 45C76.275 45 73.8 45 71.25 45C71.366 46.2994 71.366 46.2994 71.4844 47.625C71.4776 51.4006 70.0964 54.2767 67.5 57C63.5894 59.613 60.0387 59.5913 55.5 59.5312C54.5138 59.5443 54.5138 59.5443 53.5078 59.5576C49.6112 59.54 46.8639 59.173 43.5 57C39.1992 52.4602 38.6933 48.0074 38.25 42C35.2013 48.4329 33.3775 54.6202 32.8594 61.7344C32.77 62.9114 32.77 62.9114 32.6788 64.1123C31.8149 77.359 32.0861 90.6702 32.147 103.937C32.1626 107.704 32.1692 111.471 32.1767 115.238C32.1926 122.575 32.2181 129.913 32.25 137.25C31.0125 137.25 29.775 137.25 28.5 137.25C26.8459 51.8698 26.8459 51.8698 36 35.25C35.5258 34.812 35.5258 34.812 35.042 34.3652C31.9864 31.2449 30.7611 28.7584 30.5742 24.3721C30.9603 20.2602 32.7256 17.4744 35.6719 14.6719C39.46 12.2436 44.0169 11.6779 48.1963 13.4824ZM36.75 18.75C35.0016 21.3143 34.5 22.8078 34.5 25.9219C35.4041 29.0296 36.4522 30.2813 39 32.25C41.0084 32.9043 41.0084 32.9043 42.75 33C42.0075 34.485 41.265 35.97 40.5 37.5C49.905 37.7475 59.31 37.995 69 38.25C69.3712 38.9925 69.3712 38.9925 69.75 39.75C73.215 39.75 76.68 39.75 80.25 39.75C80.4975 39.255 80.745 38.76 81 38.25C90.6525 38.0025 100.305 37.755 110.25 37.5C109.507 36.015 108.765 34.53 108 33C108.696 32.7989 109.392 32.5978 110.109 32.3906C112.425 31.528 113.255 31.1145 114.75 29.25C115.854 25.7789 115.841 23.1939 114.234 19.9219C111.931 17.369 110.725 16.6598 107.344 16.2187C104.346 16.5784 102.822 17.6005 100.5 19.5C98.9399 21.7692 99 22.6086 99 25.5C98.2294 25.1384 97.4589 24.7768 96.665 24.4043C90.7793 21.6983 85.2798 19.3169 78.75 18.75C78.2105 18.6978 77.671 18.6456 77.1152 18.5918C69.3422 18.2216 61.7059 20.5617 54.832 24.0088C53.25 24.75 53.25 24.75 51.75 24.75C51.2373 23.456 50.7246 22.1621 50.2119 20.8682C49.393 19.2944 48.6413 18.3546 47.25 17.25C43.3679 16.1014 39.8638 15.9109 36.75 18.75ZM55.4912 42.3047C54.9232 42.6769 54.3552 43.0491 53.77 43.4326C53.1807 43.8261 52.5915 44.2196 51.9844 44.625C51.3864 45.0185 50.7884 45.412 50.1723 45.8174C48.6951 46.7904 47.2212 47.768 45.75 48.75C45.9975 49.74 46.245 50.73 46.5 51.75C49.8567 50.5562 52.7367 48.8581 55.7344 46.9687C56.2182 46.6787 56.7021 46.3887 57.2007 46.0898C58.7607 45.1406 58.7607 45.1406 60.75 43.5C60.75 42.51 60.75 41.52 60.75 40.5C58.2037 40.5 57.5642 40.933 55.4912 42.3047ZM99 39.75C96.7393 41.0447 94.4936 42.3635 92.25 43.6875C91.2841 44.24 91.2841 44.24 90.2988 44.8037C89.6897 45.1663 89.0806 45.5288 88.4531 45.9023C87.8875 46.2323 87.322 46.5622 86.7392 46.9021C86.3303 47.2644 85.9213 47.6267 85.5 48C85.5 48.99 85.5 49.98 85.5 51C89.0914 50.6032 91.6917 48.9162 94.6406 46.9687C95.1119 46.669 95.5832 46.3693 96.0688 46.0605C98.3174 44.5983 99.7444 43.5083 101.25 41.25C100.507 40.755 99.765 40.26 99 39.75ZM98.1562 48.75C97.7337 49.0362 97.3112 49.3223 96.876 49.6172C95.8319 50.325 94.7906 51.0371 93.75 51.75C93.9975 52.245 94.245 52.74 94.5 53.25C97.217 52.2558 99.4763 51.0424 101.859 49.4062C102.452 49.0021 103.045 48.598 103.655 48.1816C104.099 47.8742 104.543 47.5668 105 47.25C104.752 46.755 104.505 46.26 104.25 45.75C101.769 45.75 100.167 47.3811 98.1562 48.75ZM58.7344 49.0312C57.989 49.5011 57.2436 49.971 56.4756 50.4551C55.9061 50.8824 55.3367 51.3097 54.75 51.75C54.75 52.245 54.75 52.74 54.75 53.25C57.6979 52.8259 59.6505 51.9646 62.1094 50.2969C62.9983 49.7066 62.9983 49.7066 63.9053 49.1045C64.349 48.74 64.7928 48.3755 65.25 48C65.25 47.505 65.25 47.01 65.25 46.5C62.3629 46.5 61.1505 47.4836 58.7344 49.0312Z" fill="#72AF9A"/>
<path d="M75 55.1719C75.815 55.1639 75.815 55.1639 76.6465 55.1558C78.882 55.1826 80.5738 55.224 82.4795 56.458C83.8703 58.7902 83.7461 61.1334 83.25 63.75C81.9375 65.25 81.9375 65.25 80.25 66C79.26 66 78.27 66 77.25 66C77.4975 67.7325 77.745 69.465 78 71.25C80.0424 71.8173 81.3436 72.1277 83.3906 71.4844C84.984 70.3305 85.5267 69.3083 86.25 67.5C87.4875 67.5 88.725 67.5 90 67.5C89.8012 70.349 89.397 71.8054 87.6562 74.1094C85.0359 76.1031 83.5317 76.5 80.25 76.5C78.7441 75.7618 77.2433 75.0132 75.75 74.25C74.2378 74.7867 74.2378 74.7867 72.75 75.75C69.7128 76.4812 68.0194 76.6898 65.0625 75.6094C62.2778 73.774 61.0464 72.4357 60.2344 69.1875C60.157 68.6306 60.0797 68.0738 60 67.5C61.7344 67.2656 61.7344 67.2656 63.75 67.5C64.5367 68.7272 65.2868 69.9786 66 71.25C67.8209 72.1311 68.6472 72.0934 70.5938 71.5781C72.5869 70.05 72.8801 68.3764 73.5 66C72.6647 65.9227 71.8294 65.8453 70.9688 65.7656C69.623 65.5104 69.623 65.5104 68.25 65.25C66.5057 62.6335 66.436 61.5771 66.75 58.5C68.5123 54.7594 71.2982 55.0698 75 55.1719Z" fill="#72AF9A"/>
<path d="M105.75 121.5C106.493 121.5 107.235 121.5 108 121.5C108 124.965 108 128.43 108 132C107.01 132 106.02 132 105 132C104.98 130.391 104.965 128.781 104.953 127.172C104.944 126.276 104.936 125.379 104.927 124.456C105 122.25 105 122.25 105.75 121.5Z" fill="#72AF9A"/>
<path d="M95.25 105.75C95.9925 105.75 96.735 105.75 97.5 105.75C97.5 109.215 97.5 112.68 97.5 116.25C96.51 116.25 95.52 116.25 94.5 116.25C94.4799 114.641 94.4653 113.031 94.4531 111.422C94.4444 110.526 94.4357 109.629 94.4268 108.706C94.5 106.5 94.5 106.5 95.25 105.75Z" fill="#72AF9A"/>
<path d="M84.75 121.5C85.4925 121.748 86.235 121.995 87 122.25C87 125.467 87 128.685 87 132C86.01 132 85.02 132 84 132C83.9799 130.391 83.9653 128.781 83.9531 127.172C83.9444 126.276 83.9357 125.379 83.9268 124.456C84 122.25 84 122.25 84.75 121.5Z" fill="#72AF9A"/>
<path d="M63.75 121.5C64.4925 121.748 65.235 121.995 66 122.25C66 125.467 66 128.685 66 132C65.01 132 64.02 132 63 132C62.9799 130.391 62.9653 128.781 62.9531 127.172C62.9444 126.276 62.9357 125.379 62.9268 124.456C63 122.25 63 122.25 63.75 121.5Z" fill="#72AF9A"/>
<path d="M42.75 121.5C43.4925 121.748 44.235 121.995 45 122.25C45 125.467 45 128.685 45 132C44.01 132 43.02 132 42 132C41.9799 130.391 41.9653 128.781 41.9531 127.172C41.9444 126.276 41.9357 125.379 41.9268 124.456C42 122.25 42 122.25 42.75 121.5Z" fill="#72AF9A"/>
<path d="M74.25 105.75C74.9925 105.998 75.735 106.245 76.5 106.5C76.5 109.717 76.5 112.935 76.5 116.25C75.51 116.25 74.52 116.25 73.5 116.25C73.4799 114.641 73.4653 113.031 73.4531 111.422C73.4444 110.526 73.4357 109.629 73.4268 108.706C73.5 106.5 73.5 106.5 74.25 105.75Z" fill="#72AF9A"/>
<path d="M53.25 105.75C53.9925 105.998 54.735 106.245 55.5 106.5C55.5 109.717 55.5 112.935 55.5 116.25C54.51 116.25 53.52 116.25 52.5 116.25C52.4799 114.641 52.4653 113.031 52.4531 111.422C52.4444 110.526 52.4357 109.629 52.4268 108.706C52.5 106.5 52.5 106.5 53.25 105.75Z" fill="#72AF9A"/>
<path d="M63 86.25C63.99 86.25 64.98 86.25 66 86.25C66 89.715 66 93.18 66 96.75C65.01 96.75 64.02 96.75 63 96.75C63 93.285 63 89.82 63 86.25Z" fill="#72AF9A"/>
<path d="M42 86.25C42.99 86.25 43.98 86.25 45 86.25C45 89.715 45 93.18 45 96.75C44.01 96.75 43.02 96.75 42 96.75C42 93.285 42 89.82 42 86.25Z" fill="#72AF9A"/>
<path d="M105.75 86.25C106.493 86.25 107.235 86.25 108 86.25C108 89.715 108 93.18 108 96.75C107.01 96.5025 106.02 96.255 105 96C104.98 94.5157 104.965 93.0313 104.953 91.5469C104.944 90.7203 104.936 89.8937 104.927 89.042C105 87 105 87 105.75 86.25Z" fill="#72AF9A"/>
<path d="M84.75 86.25C85.4925 86.25 86.235 86.25 87 86.25C87 89.715 87 93.18 87 96.75C86.01 96.5025 85.02 96.255 84 96C83.9799 94.5157 83.9652 93.0313 83.9531 91.5469C83.9444 90.7203 83.9357 89.8937 83.9268 89.042C84 87 84 87 84.75 86.25Z" fill="#72AF9A"/>
</svg>
