<svg width="437" height="189" viewBox="0 0 437 189" fill="none" xmlns="http://www.w3.org/2000/svg">
<path d="M0.379028 160.032H4.02701L12.219 175.776L20.347 160.032H24.027V182.432H21.147L21.115 164.544L13.147 180.064H11.259L3.22702 164.544V182.432H0.379028V160.032Z" fill="#72AF9A"/>
<path d="M47.1295 165.504V182.432H44.1215V178.848C43.0122 181.259 40.9215 182.485 37.8495 182.528C35.8869 182.528 34.3508 181.952 33.2415 180.8C32.1322 179.627 31.5775 178.016 31.5775 175.968V165.504H34.5855V175.168C34.5855 176.597 34.9695 177.717 35.7375 178.528C36.5269 179.317 37.6042 179.712 38.9695 179.712C40.5482 179.691 41.7962 179.136 42.7135 178.048C43.6522 176.939 44.1215 175.531 44.1215 173.824V165.504H47.1295Z" fill="#72AF9A"/>
<path d="M64.3115 165.408C66.2955 165.408 67.8529 165.995 68.9835 167.168C70.1142 168.32 70.6795 169.92 70.6795 171.968V182.432H67.7035V172.768C67.7035 171.339 67.2982 170.229 66.4875 169.44C65.6982 168.629 64.5995 168.224 63.1915 168.224C61.6769 168.245 60.4395 168.736 59.4795 169.696C58.5409 170.635 58.0075 171.861 57.8795 173.376V182.432H54.9035V165.504H57.8795V169.088C59.0102 166.677 61.1542 165.451 64.3115 165.408Z" fill="#72AF9A"/>
<path d="M93.742 158.688V182.432H90.766V179.072C90.126 180.203 89.262 181.077 88.174 181.696C87.1073 182.293 85.8594 182.592 84.43 182.592C82.83 182.592 81.4113 182.229 80.174 181.504C78.958 180.757 78.0087 179.733 77.326 178.432C76.6434 177.109 76.302 175.605 76.302 173.92C76.302 172.256 76.6434 170.784 77.326 169.504C78.0087 168.203 78.958 167.189 80.174 166.464C81.4113 165.739 82.8193 165.376 84.398 165.376C85.8487 165.376 87.118 165.675 88.206 166.272C89.294 166.869 90.1474 167.733 90.766 168.864V158.688H93.742ZM85.038 180.032C86.1474 180.032 87.1287 179.776 87.982 179.264C88.8567 178.752 89.5394 178.037 90.03 177.12C90.5207 176.203 90.766 175.168 90.766 174.016C90.766 172.843 90.5207 171.797 90.03 170.88C89.5394 169.963 88.8567 169.248 87.982 168.736C87.1287 168.224 86.1474 167.968 85.038 167.968C83.9287 167.968 82.9367 168.235 82.062 168.768C81.2087 169.28 80.5367 169.995 80.046 170.912C79.5554 171.829 79.31 172.864 79.31 174.016C79.31 175.168 79.5554 176.203 80.046 177.12C80.5367 178.037 81.2087 178.752 82.062 179.264C82.9367 179.776 83.9287 180.032 85.038 180.032Z" fill="#72AF9A"/>
<path d="M108.756 165.408C110.441 165.408 111.935 165.771 113.236 166.496C114.559 167.221 115.583 168.235 116.308 169.536C117.055 170.816 117.428 172.288 117.428 173.952C117.428 175.616 117.055 177.099 116.308 178.4C115.583 179.701 114.559 180.715 113.236 181.44C111.935 182.165 110.441 182.528 108.756 182.528C107.049 182.528 105.535 182.165 104.212 181.44C102.911 180.715 101.887 179.712 101.14 178.432C100.415 177.131 100.052 175.637 100.052 173.952C100.052 172.288 100.415 170.816 101.14 169.536C101.887 168.235 102.911 167.221 104.212 166.496C105.535 165.771 107.049 165.408 108.756 165.408ZM108.756 168C107.647 168 106.655 168.256 105.78 168.768C104.927 169.28 104.255 169.995 103.764 170.912C103.295 171.808 103.06 172.832 103.06 173.984C103.06 175.157 103.295 176.203 103.764 177.12C104.255 178.037 104.927 178.752 105.78 179.264C106.655 179.755 107.647 180 108.756 180C109.844 180 110.815 179.755 111.668 179.264C112.543 178.752 113.215 178.037 113.684 177.12C114.175 176.203 114.42 175.157 114.42 173.984C114.42 172.832 114.175 171.808 113.684 170.912C113.215 169.995 112.543 169.28 111.668 168.768C110.815 168.256 109.844 168 108.756 168Z" fill="#72AF9A"/>
<path d="M147.742 158.688V182.432H144.766V179.072C144.126 180.203 143.262 181.077 142.174 181.696C141.107 182.293 139.859 182.592 138.43 182.592C136.83 182.592 135.411 182.229 134.174 181.504C132.958 180.757 132.009 179.733 131.326 178.432C130.643 177.109 130.302 175.605 130.302 173.92C130.302 172.256 130.643 170.784 131.326 169.504C132.009 168.203 132.958 167.189 134.174 166.464C135.411 165.739 136.819 165.376 138.398 165.376C139.849 165.376 141.118 165.675 142.206 166.272C143.294 166.869 144.147 167.733 144.766 168.864V158.688H147.742ZM139.038 180.032C140.147 180.032 141.129 179.776 141.982 179.264C142.857 178.752 143.539 178.037 144.03 177.12C144.521 176.203 144.766 175.168 144.766 174.016C144.766 172.843 144.521 171.797 144.03 170.88C143.539 169.963 142.857 169.248 141.982 168.736C141.129 168.224 140.147 167.968 139.038 167.968C137.929 167.968 136.937 168.235 136.062 168.768C135.209 169.28 134.537 169.995 134.046 170.912C133.555 171.829 133.31 172.864 133.31 174.016C133.31 175.168 133.555 176.203 134.046 177.12C134.537 178.037 135.209 178.752 136.062 179.264C136.937 179.776 137.929 180.032 139.038 180.032Z" fill="#72AF9A"/>
<path d="M162.5 165.408C165.124 165.408 167.108 166.187 168.452 167.744C169.796 169.28 170.468 171.424 170.468 174.176C170.468 174.603 170.457 174.923 170.436 175.136H157.06C157.295 176.651 157.924 177.856 158.948 178.752C159.993 179.648 161.273 180.096 162.788 180.096C163.791 180.096 164.719 179.915 165.572 179.552C166.447 179.189 167.204 178.677 167.844 178.016L169.476 179.712C168.644 180.608 167.641 181.301 166.468 181.792C165.295 182.283 163.993 182.528 162.564 182.528C160.9 182.528 159.417 182.176 158.116 181.472C156.836 180.747 155.833 179.733 155.108 178.432C154.404 177.131 154.052 175.648 154.052 173.984C154.052 172.32 154.404 170.848 155.108 169.568C155.833 168.267 156.836 167.253 158.116 166.528C159.396 165.781 160.857 165.408 162.5 165.408ZM167.78 172.832C167.695 171.296 167.183 170.091 166.244 169.216C165.305 168.32 164.068 167.872 162.532 167.872C161.039 167.872 159.791 168.32 158.788 169.216C157.807 170.112 157.22 171.317 157.028 172.832H167.78Z" fill="#72AF9A"/>
<path d="M194.984 159.84C197.138 159.84 199.112 160.341 200.904 161.344C202.717 162.347 204.146 163.723 205.192 165.472C206.237 167.2 206.76 169.109 206.76 171.2C206.76 173.291 206.237 175.221 205.192 176.992C204.146 178.741 202.717 180.128 200.904 181.152C199.112 182.155 197.138 182.656 194.984 182.656C192.829 182.656 190.845 182.155 189.032 181.152C187.24 180.128 185.821 178.741 184.776 176.992C183.73 175.221 183.208 173.291 183.208 171.2C183.208 169.109 183.73 167.2 184.776 165.472C185.821 163.723 187.24 162.347 189.032 161.344C190.824 160.341 192.808 159.84 194.984 159.84ZM195.016 162.592C193.458 162.592 192.008 162.976 190.664 163.744C189.341 164.512 188.285 165.557 187.496 166.88C186.706 168.181 186.312 169.621 186.312 171.2C186.312 172.779 186.706 174.229 187.496 175.552C188.285 176.875 189.341 177.931 190.664 178.72C192.008 179.488 193.458 179.872 195.016 179.872C196.573 179.872 198.002 179.488 199.304 178.72C200.626 177.931 201.672 176.875 202.44 175.552C203.229 174.229 203.624 172.779 203.624 171.2C203.624 169.621 203.229 168.181 202.44 166.88C201.672 165.557 200.626 164.512 199.304 163.744C198.002 162.976 196.573 162.592 195.016 162.592Z" fill="#72AF9A"/>
<path d="M222.152 169.248C221.448 168.821 220.669 168.48 219.816 168.224C218.984 167.968 218.184 167.84 217.416 167.84C216.52 167.84 215.794 168.011 215.24 168.352C214.706 168.672 214.44 169.173 214.44 169.856C214.44 170.539 214.738 171.061 215.336 171.424C215.954 171.765 216.882 172.117 218.12 172.48C219.293 172.821 220.253 173.163 221 173.504C221.746 173.845 222.376 174.347 222.888 175.008C223.421 175.669 223.688 176.544 223.688 177.632C223.688 179.232 223.08 180.448 221.864 181.28C220.669 182.112 219.176 182.528 217.384 182.528C216.125 182.528 214.898 182.325 213.704 181.92C212.53 181.515 211.538 180.939 210.728 180.192L211.848 178.016C212.552 178.656 213.416 179.168 214.44 179.552C215.485 179.936 216.498 180.128 217.48 180.128C218.461 180.128 219.25 179.947 219.848 179.584C220.445 179.221 220.744 178.667 220.744 177.92C220.744 177.152 220.424 176.576 219.784 176.192C219.165 175.808 218.216 175.424 216.936 175.04C215.805 174.72 214.877 174.4 214.152 174.08C213.448 173.739 212.84 173.248 212.328 172.608C211.837 171.968 211.592 171.136 211.592 170.112C211.592 168.533 212.168 167.349 213.32 166.56C214.472 165.771 215.912 165.376 217.64 165.376C218.664 165.376 219.666 165.525 220.648 165.824C221.65 166.101 222.514 166.485 223.24 166.976L222.152 169.248Z" fill="#72AF9A"/>
<path d="M236.694 165.408C238.379 165.408 239.872 165.771 241.174 166.496C242.496 167.221 243.52 168.235 244.246 169.536C244.992 170.816 245.366 172.288 245.366 173.952C245.366 175.616 244.992 177.099 244.246 178.4C243.52 179.701 242.496 180.715 241.174 181.44C239.872 182.165 238.379 182.528 236.694 182.528C234.987 182.528 233.472 182.165 232.15 181.44C230.848 180.715 229.824 179.712 229.078 178.432C228.352 177.131 227.99 175.637 227.99 173.952C227.99 172.288 228.352 170.816 229.078 169.536C229.824 168.235 230.848 167.221 232.15 166.496C233.472 165.771 234.987 165.408 236.694 165.408ZM236.694 168C235.584 168 234.592 168.256 233.718 168.768C232.864 169.28 232.192 169.995 231.702 170.912C231.232 171.808 230.997 172.832 230.997 173.984C230.997 175.157 231.232 176.203 231.702 177.12C232.192 178.037 232.864 178.752 233.718 179.264C234.592 179.755 235.584 180 236.694 180C237.782 180 238.752 179.755 239.606 179.264C240.48 178.752 241.152 178.037 241.622 177.12C242.112 176.203 242.358 175.157 242.358 173.984C242.358 172.832 242.112 171.808 241.622 170.912C241.152 169.995 240.48 169.28 239.606 168.768C238.752 168.256 237.782 168 236.694 168Z" fill="#72AF9A"/>
<path d="M260.776 169.248C260.072 168.821 259.294 168.48 258.44 168.224C257.608 167.968 256.809 167.84 256.041 167.84C255.145 167.84 254.419 168.011 253.865 168.352C253.331 168.672 253.065 169.173 253.065 169.856C253.065 170.539 253.363 171.061 253.961 171.424C254.579 171.765 255.507 172.117 256.745 172.48C257.918 172.821 258.878 173.163 259.625 173.504C260.371 173.845 261.001 174.347 261.513 175.008C262.046 175.669 262.312 176.544 262.312 177.632C262.312 179.232 261.705 180.448 260.489 181.28C259.294 182.112 257.801 182.528 256.009 182.528C254.75 182.528 253.523 182.325 252.328 181.92C251.155 181.515 250.163 180.939 249.353 180.192L250.473 178.016C251.177 178.656 252.041 179.168 253.065 179.552C254.11 179.936 255.123 180.128 256.104 180.128C257.086 180.128 257.875 179.947 258.473 179.584C259.07 179.221 259.369 178.667 259.369 177.92C259.369 177.152 259.049 176.576 258.409 176.192C257.79 175.808 256.84 175.424 255.56 175.04C254.43 174.72 253.502 174.4 252.776 174.08C252.072 173.739 251.465 173.248 250.953 172.608C250.462 171.968 250.216 171.136 250.216 170.112C250.216 168.533 250.793 167.349 251.945 166.56C253.097 165.771 254.537 165.376 256.265 165.376C257.289 165.376 258.291 165.525 259.273 165.824C260.275 166.101 261.139 166.485 261.865 166.976L260.776 169.248Z" fill="#72AF9A"/>
<path d="M282.573 184.832C282.04 186.133 281.326 187.115 280.43 187.776C279.555 188.437 278.52 188.768 277.326 188.768C276.6 188.768 275.939 188.661 275.341 188.448C274.744 188.235 274.168 187.904 273.614 187.456L274.893 185.12C275.64 185.653 276.398 185.92 277.166 185.92C278.446 185.92 279.406 185.195 280.046 183.744L280.685 182.24L273.677 165.504H276.814L282.19 179.072L287.278 165.504H290.318L282.573 184.832Z" fill="#72AF9A"/>
<path d="M318.218 182.432L313.77 175.392C313.258 175.435 312.842 175.456 312.522 175.456H306.826V182.432H303.754V160.032H312.522C315.359 160.032 317.546 160.693 319.082 162.016C320.639 163.317 321.418 165.173 321.418 167.584C321.418 169.397 320.991 170.923 320.138 172.16C319.306 173.397 318.101 174.293 316.522 174.848L321.738 182.432H318.218ZM312.522 172.672C314.442 172.672 315.914 172.256 316.938 171.424C317.962 170.571 318.474 169.323 318.474 167.68C318.474 166.08 317.962 164.875 316.938 164.064C315.914 163.232 314.442 162.816 312.522 162.816H306.826V172.672H312.522Z" fill="#72AF9A"/>
<path d="M335.375 165.408C337.999 165.408 339.983 166.187 341.327 167.744C342.671 169.28 343.343 171.424 343.343 174.176C343.343 174.603 343.332 174.923 343.311 175.136H329.935C330.17 176.651 330.799 177.856 331.823 178.752C332.868 179.648 334.148 180.096 335.663 180.096C336.666 180.096 337.594 179.915 338.447 179.552C339.322 179.189 340.079 178.677 340.719 178.016L342.351 179.712C341.519 180.608 340.516 181.301 339.343 181.792C338.17 182.283 336.868 182.528 335.439 182.528C333.775 182.528 332.292 182.176 330.991 181.472C329.711 180.747 328.708 179.733 327.983 178.432C327.279 177.131 326.927 175.648 326.927 173.984C326.927 172.32 327.279 170.848 327.983 169.568C328.708 168.267 329.711 167.253 330.991 166.528C332.271 165.781 333.732 165.408 335.375 165.408ZM340.655 172.832C340.57 171.296 340.058 170.091 339.119 169.216C338.18 168.32 336.943 167.872 335.407 167.872C333.914 167.872 332.666 168.32 331.663 169.216C330.682 170.112 330.095 171.317 329.903 172.832H340.655Z" fill="#72AF9A"/>
<path d="M364.38 165.504V180.704C364.38 182.325 364.017 183.744 363.292 184.96C362.588 186.176 361.585 187.104 360.284 187.744C358.982 188.405 357.468 188.736 355.74 188.736C353.244 188.736 350.918 187.947 348.763 186.368L350.076 184.192C350.908 184.875 351.772 185.376 352.668 185.696C353.564 186.037 354.545 186.208 355.612 186.208C357.361 186.208 358.758 185.717 359.804 184.736C360.849 183.755 361.372 182.443 361.372 180.8V178.432C360.774 179.456 359.964 180.256 358.94 180.832C357.916 181.387 356.742 181.664 355.419 181.664C353.905 181.664 352.561 181.323 351.388 180.64C350.236 179.936 349.34 178.965 348.7 177.728C348.06 176.491 347.74 175.072 347.74 173.472C347.74 171.893 348.06 170.496 348.7 169.28C349.34 168.064 350.236 167.115 351.388 166.432C352.561 165.749 353.905 165.408 355.419 165.408C356.763 165.408 357.937 165.685 358.94 166.24C359.964 166.795 360.774 167.584 361.372 168.608V165.504H364.38ZM355.996 179.264C357.041 179.264 357.969 179.019 358.78 178.528C359.59 178.037 360.22 177.365 360.668 176.512C361.137 175.637 361.372 174.656 361.372 173.568C361.372 172.459 361.137 171.477 360.668 170.624C360.22 169.749 359.59 169.067 358.78 168.576C357.969 168.085 357.041 167.84 355.996 167.84C354.95 167.84 354.012 168.085 353.18 168.576C352.369 169.067 351.729 169.749 351.26 170.624C350.79 171.477 350.556 172.459 350.556 173.568C350.577 175.232 351.089 176.597 352.091 177.664C353.094 178.731 354.396 179.264 355.996 179.264Z" fill="#72AF9A"/>
<path d="M382.177 182.432V180.064C380.918 181.728 378.945 182.56 376.257 182.56C375.084 182.56 374.049 182.336 373.153 181.888C372.278 181.44 371.596 180.821 371.105 180.032C370.636 179.243 370.401 178.357 370.401 177.376C370.401 175.861 370.956 174.667 372.065 173.792C373.196 172.896 374.764 172.437 376.769 172.416H382.145V171.616C382.145 170.421 381.772 169.504 381.025 168.864C380.3 168.203 379.233 167.872 377.825 167.872C376.118 167.872 374.38 168.48 372.609 169.696L371.361 167.648C372.577 166.859 373.697 166.293 374.721 165.952C375.766 165.589 377.004 165.408 378.433 165.408C380.545 165.408 382.177 165.931 383.329 166.976C384.481 168 385.068 169.44 385.089 171.296L385.121 182.432H382.177ZM376.865 180.096C378.252 180.096 379.425 179.765 380.385 179.104C381.366 178.421 381.953 177.525 382.145 176.416V174.72H377.185C375.841 174.72 374.838 174.923 374.177 175.328C373.537 175.733 373.217 176.373 373.217 177.248C373.217 178.123 373.548 178.816 374.209 179.328C374.87 179.84 375.756 180.096 376.865 180.096Z" fill="#72AF9A"/>
<path d="M392.563 158.688H395.539V182.432H392.563V158.688Z" fill="#72AF9A"/>
<path d="M410.569 165.408C412.254 165.408 413.747 165.771 415.049 166.496C416.371 167.221 417.395 168.235 418.121 169.536C418.867 170.816 419.241 172.288 419.241 173.952C419.241 175.616 418.867 177.099 418.121 178.4C417.395 179.701 416.371 180.715 415.049 181.44C413.747 182.165 412.254 182.528 410.569 182.528C408.862 182.528 407.347 182.165 406.025 181.44C404.723 180.715 403.699 179.712 402.953 178.432C402.227 177.131 401.865 175.637 401.865 173.952C401.865 172.288 402.227 170.816 402.953 169.536C403.699 168.235 404.723 167.221 406.025 166.496C407.347 165.771 408.862 165.408 410.569 165.408ZM410.569 168C409.459 168 408.467 168.256 407.593 168.768C406.739 169.28 406.067 169.995 405.577 170.912C405.107 171.808 404.872 172.832 404.872 173.984C404.872 175.157 405.107 176.203 405.577 177.12C406.067 178.037 406.739 178.752 407.593 179.264C408.467 179.755 409.459 180 410.569 180C411.657 180 412.627 179.755 413.481 179.264C414.355 178.752 415.027 178.037 415.497 177.12C415.987 176.203 416.233 175.157 416.233 173.984C416.233 172.832 415.987 171.808 415.497 170.912C415.027 169.995 414.355 169.28 413.481 168.768C412.627 168.256 411.657 168 410.569 168Z" fill="#72AF9A"/>
<path d="M434.651 169.248C433.947 168.821 433.169 168.48 432.315 168.224C431.483 167.968 430.684 167.84 429.916 167.84C429.02 167.84 428.294 168.011 427.74 168.352C427.206 168.672 426.94 169.173 426.94 169.856C426.94 170.539 427.238 171.061 427.836 171.424C428.454 171.765 429.382 172.117 430.62 172.48C431.793 172.821 432.753 173.163 433.5 173.504C434.246 173.845 434.876 174.347 435.388 175.008C435.921 175.669 436.188 176.544 436.188 177.632C436.188 179.232 435.58 180.448 434.364 181.28C433.169 182.112 431.676 182.528 429.884 182.528C428.625 182.528 427.398 182.325 426.203 181.92C425.03 181.515 424.038 180.939 423.228 180.192L424.348 178.016C425.052 178.656 425.916 179.168 426.94 179.552C427.985 179.936 428.998 180.128 429.979 180.128C430.961 180.128 431.75 179.947 432.348 179.584C432.945 179.221 433.244 178.667 433.244 177.92C433.244 177.152 432.924 176.576 432.284 176.192C431.665 175.808 430.715 175.424 429.435 175.04C428.305 174.72 427.377 174.4 426.651 174.08C425.947 173.739 425.34 173.248 424.828 172.608C424.337 171.968 424.091 171.136 424.091 170.112C424.091 168.533 424.668 167.349 425.82 166.56C426.972 165.771 428.412 165.376 430.14 165.376C431.164 165.376 432.166 165.525 433.148 165.824C434.15 166.101 435.014 166.485 435.74 166.976L434.651 169.248Z" fill="#72AF9A"/>
<path d="M93.312 102.816C91.44 104.4 88.992 105.696 85.968 106.704C83.088 107.568 79.704 108 75.816 108C70.632 108 66.3121 107.352 62.8561 106.056C59.5441 104.76 57.3841 102.528 56.3761 99.36C52.3441 86.688 49.032 76.464 46.44 68.688C43.848 60.768 41.8321 53.856 40.3921 47.952H39.312C38.88 56.448 38.5201 64.224 38.2321 71.28C38.0881 78.192 37.944 84.96 37.8 91.584C37.8 98.208 37.6561 104.904 37.3681 111.672C37.2241 118.44 36.936 125.928 36.504 134.136C34.632 134.856 32.184 135.432 29.16 135.864C26.136 136.44 23.112 136.728 20.088 136.728C13.752 136.728 8.78408 135.72 5.18408 133.704C1.72808 131.688 0 128.016 0 122.688L6.26404 12.528C7.41604 10.656 9.936 8.64001 13.824 6.48001C17.712 4.32001 23.1841 3.24002 30.2401 3.24002C37.8721 3.24002 43.848 4.46402 48.168 6.91202C52.488 9.21602 55.6561 13.032 57.6721 18.36C58.9681 21.816 60.336 25.776 61.776 30.24C63.36 34.704 64.872 39.312 66.312 44.064C67.896 48.816 69.4081 53.568 70.8481 58.32C72.2881 62.928 73.5841 67.104 74.7361 70.848H75.816C79.272 58.752 82.7281 47.088 86.1841 35.856C89.6401 24.48 92.8081 14.976 95.6881 7.34402C97.8481 6.19202 100.584 5.25602 103.896 4.53602C107.352 3.67202 111.168 3.24002 115.344 3.24002C122.4 3.24002 128.16 4.32001 132.624 6.48001C137.088 8.49601 139.68 11.448 140.4 15.336C140.976 18.216 141.552 22.68 142.128 28.728C142.848 34.632 143.568 41.328 144.288 48.816C145.008 56.304 145.728 64.224 146.448 72.576C147.168 80.928 147.816 88.992 148.392 96.768C149.112 104.4 149.688 111.456 150.12 117.936C150.552 124.272 150.84 129.168 150.984 132.624C148.536 134.064 145.944 135.072 143.208 135.648C140.616 136.368 137.232 136.728 133.056 136.728C127.584 136.728 122.976 135.792 119.232 133.92C115.488 132.048 113.472 128.376 113.184 122.904C112.32 107.208 111.744 93.096 111.456 80.568C111.312 68.04 111.024 57.528 110.592 49.032H109.512C108.072 54.648 105.984 61.704 103.248 70.2C100.512 78.696 97.2 89.568 93.312 102.816Z" fill="#215D60"/>
<path d="M167.187 69.336C167.187 58.104 168.915 48.168 172.371 39.528C175.971 30.888 180.795 23.688 186.843 17.928C193.035 12.024 200.235 7.56 208.443 4.536C216.795 1.512 225.795 0 235.443 0C245.091 0 254.019 1.512 262.227 4.536C270.579 7.56 277.851 12.024 284.043 17.928C290.235 23.688 295.059 30.888 298.515 39.528C302.115 48.168 303.915 58.104 303.915 69.336C303.915 80.568 302.187 90.576 298.731 99.36C295.275 108 290.451 115.272 284.259 121.176C278.211 126.936 271.011 131.328 262.659 134.352C254.307 137.376 245.235 138.888 235.443 138.888C225.651 138.888 216.579 137.376 208.227 134.352C199.875 131.184 192.675 126.648 186.627 120.744C180.579 114.84 175.827 107.568 172.371 98.928C168.915 90.288 167.187 80.424 167.187 69.336ZM206.067 69.336C206.067 82.44 208.731 92.232 214.059 98.712C219.387 105.192 226.515 108.432 235.443 108.432C244.515 108.432 251.715 105.192 257.043 98.712C262.371 92.232 265.035 82.44 265.035 69.336C265.035 56.376 262.371 46.656 257.043 40.176C251.859 33.696 244.731 30.456 235.659 30.456C226.731 30.456 219.531 33.696 214.059 40.176C208.731 46.512 206.067 56.232 206.067 69.336Z" fill="#4A867D"/>
<path d="M363.126 92.664V134.136C361.542 134.568 359.022 135 355.566 135.432C352.254 135.864 348.942 136.08 345.63 136.08C342.318 136.08 339.366 135.792 336.774 135.216C334.326 134.784 332.238 133.92 330.51 132.624C328.926 131.328 327.702 129.528 326.838 127.224C325.974 124.92 325.542 121.896 325.542 118.152V16.416C325.542 13.392 326.334 11.088 327.918 9.504C329.646 7.776 331.95 6.408 334.83 5.4C339.726 3.672 345.414 2.448 351.894 1.728C358.374 0.864004 365.286 0.432007 372.63 0.432007C392.502 0.432007 407.478 4.608 417.558 12.96C427.638 21.312 432.678 32.616 432.678 46.872C432.678 55.8 430.374 63.432 425.766 69.768C421.158 76.104 415.686 81 409.35 84.456C414.534 91.512 419.646 98.136 424.686 104.328C429.726 110.52 433.686 116.136 436.566 121.176C435.126 126.216 432.462 130.104 428.574 132.84C424.83 135.432 420.582 136.728 415.83 136.728C412.662 136.728 409.926 136.368 407.622 135.648C405.318 134.928 403.302 133.92 401.574 132.624C399.846 131.328 398.262 129.744 396.822 127.872C395.382 126 394.014 123.984 392.718 121.824L374.574 92.664H363.126ZM376.734 63.936C382.206 63.936 386.526 62.568 389.694 59.832C392.862 56.952 394.446 52.776 394.446 47.304C394.446 41.832 392.646 37.728 389.046 34.992C385.59 32.112 380.046 30.672 372.414 30.672C370.254 30.672 368.526 30.744 367.23 30.888C365.934 31.032 364.494 31.248 362.91 31.536V63.936H376.734Z" fill="#72AF9A"/>
</svg>
